<svg width="108" height="100" viewBox="0 0 108 100" fill="none" xmlns="http://www.w3.org/2000/svg">
<path d="M30.9606 34.398C35.2076 34.398 38.0892 33.0294 39.4543 31.306C41.1733 29.1772 41.4765 26.3894 41.4765 25.1731C41.4765 23.1454 40.9206 20.6618 39.3027 18.7862C37.786 17.0631 35.0557 15.8464 30.8594 15.8464H22.6691V34.398H30.9606ZM21.1524 51.9863V14.4781H31.264C35.9151 14.4781 38.8981 15.9987 40.6171 18.0769C42.4373 20.3071 42.9932 23.1454 42.9932 25.1222C42.9932 27.5552 42.1339 30.2921 40.516 32.2689C38.6454 34.4991 35.4603 35.7663 31.3652 35.7663H22.6691V51.9863H21.1524" fill="#101D17"/>
<path d="M85.3092 51.9863V15.9987H85.208L67.6142 51.9863H66.7545L49.1097 15.9987H49.0086V51.9863H47.4918V14.4781H49.9183L67.2096 49.553L84.4498 14.4781H86.8262V51.9863H85.3092Z" fill="#101D17"/>
<path d="M34.6076 80.0489C32.5691 83.338 28.6195 85.6051 24.3197 85.6051C17.5673 85.6051 12.0886 80.3044 12.0886 73.375C12.0886 66.4457 17.4716 61.1447 24.3197 61.1447C28.4287 61.1447 32.2508 63.2204 34.6396 66.8289H33.5248C31.2314 63.7311 27.8553 62.0071 24.3197 62.0071C18.013 62.0071 13.0443 66.9246 13.0443 73.375C13.0443 79.7934 18.045 84.7433 24.3197 84.7433C28.0144 84.7433 31.3909 82.9548 33.5248 80.0489H34.6076Z" fill="#101D17"/>
<path d="M46.7424 62.4542L41.0091 76.0896H52.5073L46.7424 62.4542ZM56.4569 85.1901L52.9216 76.9514H40.5951L37.0595 85.1901H36.0401L46.1372 61.56H47.3792L57.4763 85.1901H56.4569" fill="#101D17"/>
<path d="M65.4383 73.1834C60.9156 72.0661 59.6413 69.8625 59.6413 67.244C59.6413 63.6673 62.3807 61.1768 66.0437 61.1768C69.2288 61.1768 71.7133 63.2522 72.1276 66.6691H71.1719C70.6305 63.6355 68.8148 62.0392 65.9797 62.0392C62.8904 62.0392 60.597 64.1786 60.597 67.1801C60.597 69.5432 61.8073 71.2993 65.6615 72.3213L67.5725 72.8323C71.745 73.9499 72.7964 76.5364 72.7964 78.9951C72.7964 82.7314 69.611 85.6051 65.948 85.6051C62.8267 85.6051 59.4822 83.4976 59.1319 79.2189H60.0873C60.5016 82.6996 62.9541 84.7433 65.916 84.7433C69.0696 84.7433 71.8407 82.3163 71.8407 79.1229C71.8407 76.2491 70.3439 74.3971 66.2032 73.3751L65.4383 73.1834" fill="#101D17"/>
<path d="M85.1219 62.4542L79.389 76.0896H90.8872L85.1219 62.4542ZM94.8368 85.1901L91.3012 76.9514H78.9747L75.4394 85.1901H74.42L84.5168 61.56H85.7591L95.8562 85.1901H94.8368" fill="#101D17"/>
<path d="M0.90587 99.0918H107.094V0.908174H0.90587V99.0918ZM108 100H0V0H108V100Z" fill="#101D17"/>
</svg>
